<svg width="325" height="305" viewBox="0 0 325 305" fill="none" xmlns="http://www.w3.org/2000/svg">
<g filter="url(#filter0_d_1219_72)">
<path d="M9.76562 44.4609C9.76562 40.8151 11.0026 37.7552 13.4766 35.2812C16.0807 32.6771 19.2057 31.375 22.8516 31.375H136.523C140.169 31.375 143.294 32.612 145.898 35.0859C148.372 37.6901 149.609 40.8151 149.609 44.4609C149.609 48.1068 148.307 51.2318 145.703 53.8359C143.229 56.3099 140.169 57.5469 136.523 57.5469H92.9688V136.648C92.1875 144.461 87.8906 148.693 80.0781 149.344C76.4323 149.344 73.2422 148.172 70.5078 145.828C67.9036 143.354 66.6016 140.294 66.6016 136.648V57.5469H22.8516C19.2057 57.5469 16.1458 56.2448 13.6719 53.6406C11.0677 51.1667 9.76562 48.1068 9.76562 44.4609ZM275 31.375C281.641 31.5052 287.565 33.5885 292.773 37.625C297.982 41.6615 302.148 46.4792 305.273 52.0781C308.529 57.6771 310.938 63.6016 312.5 69.8516C314.062 76.1016 314.844 82.4818 314.844 88.9922C314.844 97.5859 313.477 106.049 310.742 114.383C308.138 122.586 303.776 129.878 297.656 136.258C291.667 142.638 284.115 146.089 275 146.609H206.836C197.721 146.219 190.104 142.833 183.984 136.453C177.865 130.073 173.503 122.716 170.898 114.383C168.424 106.049 167.188 97.5859 167.188 88.9922C167.188 80.3984 168.49 72 171.094 63.7969C173.698 55.4635 177.995 48.1068 183.984 41.7266C190.104 35.2161 197.721 31.7656 206.836 31.375H210.547H271.289H275ZM268.359 120.438C273.307 120.177 277.409 118.354 280.664 114.969C284.049 111.453 286.458 107.417 287.891 102.859C289.323 98.3021 290.039 93.6797 290.039 88.9922C290.039 84.3047 289.258 79.7474 287.695 75.3203C286.263 70.763 283.919 66.7266 280.664 63.2109C277.409 59.6953 273.307 57.8073 268.359 57.5469H212.891C207.943 57.8073 203.841 59.6953 200.586 63.2109C197.331 66.7266 194.922 70.763 193.359 75.3203C191.927 79.7474 191.211 84.3047 191.211 88.9922C191.211 93.6797 191.927 98.3021 193.359 102.859C194.792 107.417 197.135 111.453 200.391 114.969C203.776 118.354 207.943 120.177 212.891 120.438H268.359Z" fill="currentColor"/>
</g>
<g filter="url(#filter1_d_1219_72)">
<path d="M104.004 181.375C113.118 181.896 120.605 185.411 126.465 191.922C132.324 198.302 136.556 205.594 139.16 213.797C141.764 222 143.066 230.398 143.066 238.992C143.066 247.586 141.764 255.984 139.16 264.188C136.686 272.391 132.454 279.747 126.465 286.258C120.605 292.638 113.118 296.089 104.004 296.609H32.1289C28.6133 296.479 25.6185 295.242 23.1445 292.898C20.8008 290.424 19.5638 287.43 19.4336 283.914V235.477C19.5638 231.831 20.931 228.836 23.5352 226.492C26.1393 224.018 29.2643 222.781 32.9102 222.781C36.4258 222.911 39.4206 224.214 41.8945 226.688C44.3685 229.031 45.6706 231.961 45.8008 235.477V265.164C45.8008 268.68 47.6237 270.438 51.2695 270.438H97.3633C102.311 270.177 106.413 268.289 109.668 264.773C112.923 261.258 115.267 257.286 116.699 252.859C118.262 248.302 119.043 243.68 119.043 238.992C119.043 234.305 118.262 229.747 116.699 225.32C115.267 220.763 112.923 216.727 109.668 213.211C106.413 209.695 102.311 207.807 97.3633 207.547H32.1289C24.3164 206.896 20.0846 202.664 19.4336 194.852C19.4336 191.206 20.6055 188.081 22.9492 185.477C25.4232 182.872 28.4831 181.505 32.1289 181.375H104.004ZM269.238 181.375C275.879 181.505 281.803 183.589 287.012 187.625C292.22 191.661 296.387 196.479 299.512 202.078C302.767 207.677 305.176 213.602 306.738 219.852C308.301 226.102 309.082 232.482 309.082 238.992C309.082 247.586 307.715 256.049 304.98 264.383C302.376 272.586 298.014 279.878 291.895 286.258C285.905 292.638 278.353 296.089 269.238 296.609H201.074C191.96 296.219 184.342 292.833 178.223 286.453C172.103 280.073 167.741 272.716 165.137 264.383C162.663 256.049 161.426 247.586 161.426 238.992C161.426 230.398 162.728 222 165.332 213.797C167.936 205.464 172.233 198.107 178.223 191.727C184.342 185.216 191.96 181.766 201.074 181.375H204.785H265.527H269.238ZM262.598 270.438C267.546 270.177 271.647 268.354 274.902 264.969C278.288 261.453 280.697 257.417 282.129 252.859C283.561 248.302 284.277 243.68 284.277 238.992C284.277 234.305 283.496 229.747 281.934 225.32C280.501 220.763 278.158 216.727 274.902 213.211C271.647 209.695 267.546 207.807 262.598 207.547H207.129C202.181 207.807 198.079 209.695 194.824 213.211C191.569 216.727 189.16 220.763 187.598 225.32C186.165 229.747 185.449 234.305 185.449 238.992C185.449 243.68 186.165 248.302 187.598 252.859C189.03 257.417 191.374 261.453 194.629 264.969C198.014 268.354 202.181 270.177 207.129 270.438H262.598Z" fill="currentColor"/>
</g>
<defs>
<filter id="filter0_d_1219_72" x="5.76562" y="31.375" width="313.078" height="125.969" filterUnits="userSpaceOnUse" color-interpolation-filters="sRGB">
<feFlood flood-opacity="0" result="BackgroundImageFix"/>
<feColorMatrix in="SourceAlpha" type="matrix" values="0 0 0 0 0 0 0 0 0 0 0 0 0 0 0 0 0 0 127 0" result="hardAlpha"/>
<feOffset dy="4"/>
<feGaussianBlur stdDeviation="2"/>
<feComposite in2="hardAlpha" operator="out"/>
<feColorMatrix type="matrix" values="0 0 0 0 0 0 0 0 0 0 0 0 0 0 0 0 0 0 0.25 0"/>
<feBlend mode="normal" in2="BackgroundImageFix" result="effect1_dropShadow_1219_72"/>
<feBlend mode="normal" in="SourceGraphic" in2="effect1_dropShadow_1219_72" result="shape"/>
</filter>
<filter id="filter1_d_1219_72" x="15.4336" y="181.375" width="297.648" height="123.234" filterUnits="userSpaceOnUse" color-interpolation-filters="sRGB">
<feFlood flood-opacity="0" result="BackgroundImageFix"/>
<feColorMatrix in="SourceAlpha" type="matrix" values="0 0 0 0 0 0 0 0 0 0 0 0 0 0 0 0 0 0 127 0" result="hardAlpha"/>
<feOffset dy="4"/>
<feGaussianBlur stdDeviation="2"/>
<feComposite in2="hardAlpha" operator="out"/>
<feColorMatrix type="matrix" values="0 0 0 0 0 0 0 0 0 0 0 0 0 0 0 0 0 0 0.25 0"/>
<feBlend mode="normal" in2="BackgroundImageFix" result="effect1_dropShadow_1219_72"/>
<feBlend mode="normal" in="SourceGraphic" in2="effect1_dropShadow_1219_72" result="shape"/>
</filter>
</defs>
</svg>
