<svg width="370" height="205" viewBox="0 0 370 205" fill="none" xmlns="http://www.w3.org/2000/svg">
<path d="M0 20C0 9.5 8.5 0.5 19 0H305C313.035 0.138761 317.961 1.53187 321 6.5C326.161 13.3502 326.64 16.2674 327.489 21.4352C327.746 33.7596 331.966 37.5296 341 43C347.5 45.5 350.5 44 357 46.5C367.117 51.3114 369.5 57 370 68V186C369.5 194 363.959 203.685 351 205H275C262.438 205.016 256.337 204.795 250 203.5C246.997 202.603 245.904 201.891 244 198.5C241.5 194 241.093 192.779 238.5 191C235.046 189.709 231.684 189.302 225 189H137C134.259 188.778 132.863 189.618 130.5 192C127.5 195.5 126.769 196.467 125 200C122.5 204 118.81 204.552 107 205H19C8.5 204 0.5 197 0 185V176V175.5V20Z" fill="#26252c"/>
</svg>
